<?xml version="1.0" encoding="UTF-8" standalone="no"?>
<!-- Generator: Adobe Illustrator 25.0.1, SVG Export Plug-In . SVG Version: 6.00 Build 0)  -->

<svg
   version="1.1"
   id="Layer_1"
   x="0px"
   y="0px"
   viewBox="0 0 3365 3365"
   style="enable-background:new 0 0 3365 3365;"
   xml:space="preserve"
   sodipodi:docname="chair.svg"
   inkscape:version="1.1 (ce6663b3b7, 2021-05-25)"
   xmlns:inkscape="http://www.inkscape.org/namespaces/inkscape"
   xmlns:sodipodi="http://sodipodi.sourceforge.net/DTD/sodipodi-0.dtd"
   xmlns="http://www.w3.org/2000/svg"
   xmlns:svg="http://www.w3.org/2000/svg"><sodipodi:namedview
   id="namedview64"
   pagecolor="#ffffff"
   bordercolor="#666666"
   borderopacity="1.0"
   inkscape:pageshadow="2"
   inkscape:pageopacity="0.0"
   inkscape:pagecheckerboard="0"
   showgrid="false"
   inkscape:zoom="0.1961367"
   inkscape:cx="1679.9508"
   inkscape:cy="1679.9508"
   inkscape:window-width="1920"
   inkscape:window-height="1056"
   inkscape:window-x="0"
   inkscape:window-y="0"
   inkscape:window-maximized="1"
   inkscape:current-layer="Layer_1" /><defs
   id="defs129" />
<style
   type="text/css"
   id="style2">
	.st0{display:none;}
	.st1{display:inline;fill:#FFFFFF;}
	.st2{display:inline;}
	.st3{display:inline;fill:#EFEFEF;}
	.st4{display:inline;fill:#020264;}
	.st5{display:inline;fill:#AFAFAF;}
	.st6{display:inline;fill:#F0A34C;}
	.st7{display:inline;fill:#3B3B4F;}
	.st8{display:inline;fill:#D8D8D8;}
	.st9{fill:#EFEFEF;}
	.st10{fill:#FFFFFF;}
	.st11{fill:#AFAFAF;}
	.st12{fill:none;}
</style>


<g
   class="st0"
   id="g44">
	<polygon
   class="st1"
   points="0,754.94 797.09,749.61 836.58,744.17 2079.85,725.8 3365,725.8 3365,3365 0,3365  "
   id="polygon8" />
	<polygon
   class="st2"
   points="1150.73,2870.01 561.52,2769.54 557.46,1800.28 595.97,1800.12 599.9,2737.02 1112.83,2824.48    1125.75,1866.87 1164.26,1867.39  "
   id="polygon10" />
	<polygon
   class="st2"
   points="2690.49,2726.85 2101.29,2626.38 2097.23,1657.12 2135.74,1656.96 2139.66,2593.86 2652.59,2681.32    2665.52,1723.72 2704.02,1724.24  "
   id="polygon12" />
	<polygon
   class="st2"
   points="2906.9,1772.84 2908.83,1713.15 2287.63,1720.32 2010.74,1695.99 1488.34,1733.96 380.12,1752.88    380.38,1814.5 1214.45,1897.65  "
   id="polygon14" />
	<polygon
   class="st3"
   points="1212.23,1826.42 2910,1713.41 2010.49,1634.38 380.12,1752.88  "
   id="polygon16" />
	<polygon
   class="st4"
   points="1272.1,1582.66 1272.55,1690.66 1622.8,1665.49 1622.32,1552.22  "
   id="polygon18" />
	<polygon
   class="st5"
   points="836.58,743.41 840.31,1635.68 2072.31,1546.41 2079.85,725.8  "
   id="polygon20" />
	<polygon
   class="st3"
   points="876.52,771.43 880.01,1606.54 2033.1,1522.99 2040.15,754.94  "
   id="polygon22" />
	<polygon
   class="st2"
   points="840.42,1635.63 795.49,1626.81 797.09,749.61 836.58,744.17  "
   id="polygon24" />
	<polygon
   class="st2"
   points="1298.52,1601.91 1298.92,1698.45 1649.18,1675.79 1648.76,1574.54  "
   id="polygon26" />
	<polygon
   class="st2"
   points="1273.53,1696.53 1298.93,1698.45 1298.53,1602.48 1272.02,1603.74  "
   id="polygon28" />
	<polygon
   class="st2"
   points="1298.53,1603.62 1647.6,1592.97 1647.54,1577.19  "
   id="polygon30" />
	<polygon
   class="st2"
   points="2159.41,1733.75 2159.68,1709.91 1932.57,1710.21 1830.32,1699.6 1636.9,1710.6 1225.63,1714.83    1226.69,1733.92 1534.66,1769.53 2162.51,1734.07  "
   id="polygon32" />
	<polygon
   class="st5"
   points="1532.34,1747.04 2160.87,1715.14 1828.67,1680.67 1225.04,1714.99  "
   id="polygon34" />
	
		<rect
   x="1345.06"
   y="1703.52"
   transform="matrix(0.9987 -0.0509 0.0509 0.9987 -84.6288 83.065)"
   class="st1"
   width="489.7"
   height="1.92"
   id="rect36" />
	
		<rect
   x="1427.85"
   y="1711.22"
   transform="matrix(0.9987 -0.0508 0.0508 0.9987 -84.81 87.1739)"
   class="st1"
   width="489.7"
   height="1.92"
   id="rect38" />
	
		<rect
   x="1510.64"
   y="1718.92"
   transform="matrix(0.9987 -0.0509 0.0509 0.9987 -85.3126 91.636)"
   class="st1"
   width="489.7"
   height="1.92"
   id="rect40" />
	<path
   class="st4"
   d="M2422.26,2029.3c0,0,0.17,0,0.5,0.02C2420.11,2030.12,2422.26,2029.3,2422.26,2029.3z"
   id="path42" />
</g>
<g
   class="st0"
   id="g96">
	<path
   class="st2"
   d="M1966.79,2767.9c-10.7,15.64-90.13,38.08-109.27,41.43c-23.07,4.04-196.15,54.91-201.96,51.12   c-5.81-3.81-3.73-8.98-3.73-8.98c87.55-54.3,281.56-105.65,311.19-92.4c0.19,0.1,0.39,0.17,0.56,0.27   C1968.28,2761.75,1968.99,2764.7,1966.79,2767.9z"
   id="path46" />
	<path
   class="st6"
   d="M1796.4,2697.16c0,0,7.57-30.84,3.61-57.78c-3.96-26.94-9.84-51.95-9.84-51.95l115.48-12.04   c0,0,21.56,90.41,29.33,107.7C1942.75,2700.4,1804.3,2745.27,1796.4,2697.16z"
   id="path48" />
	<path
   class="st2"
   d="M1967.97,2764.57c0,1.06-0.4,2.18-1.18,3.34c0-0.02,0-0.02-0.02-0.04c-0.47-1.85-2.09-3.19-3.96-3.55   c-0.35-0.06-0.67-0.11-0.98-0.15c-6.7-0.9-19.89-3.92-40.94,2.75c-29.71,9.42-181.01,47.41-267.25,91.62   c-3.86,1.98-5.09-6.08-4.24-10.34c1.55-7.65,4.49-17.81,9.87-24.34c8.98-10.88,80.59-57.64,89.35-63.36   c0.59-0.37,1.07-0.85,1.46-1.43c4.38-6.53,31.95-47.87,31.93-53.18c-0.02-5.78-0.08-19.25,5.7-19.28c3.22-0.01,6.41-1.22,8.64-2.29   c1.81-0.87,3.96-0.57,5.51,0.73c3.52,2.97,10.1,7.85,16.69,9.13c9.64,1.89,48.14,1.72,61.6-4.11   c13.45-5.83,13.41-15.46,26.87-21.29c13.45-5.83,23.09-3.95,28.88-0.12c1.1,0.73,6.38,11.51,7.96,16.12   c2.75,8.06,6.09,20.75,9.52,33.58c4.91,18.39,9.98,37.04,13.71,42.59C1968.48,2763.04,1968.56,2764.1,1967.97,2764.57z"
   id="path50" />
	<polygon
   class="st1"
   points="1805.77,2747.38 1765.78,2735.52 1766.33,2733.68 1804.76,2745.07 1811.56,2731.33 1775.98,2718.76    1776.62,2716.95 1814.25,2730.24  "
   id="polygon52" />
	<polygon
   class="st1"
   points="1791.38,2771.48 1750.19,2759.9 1750.71,2758.04 1790.48,2769.23 1795.21,2761.26 1756.82,2749.37    1757.39,2747.53 1798.12,2760.14  "
   id="polygon54" />
	<path
   class="st1"
   d="M1953.35,2718.36l-31.7,3.31c0,0-2.06-32.72,3.68-40.45c4.25-5.72,13.81,0.14,18.5,3.56   C1946.58,2692.84,1949.93,2705.53,1953.35,2718.36z"
   id="path56" />
	<path
   class="st1"
   d="M1652.52,2851.54c24.89-11.68,49.95-22.99,75.18-33.94c25.27-10.85,50.69-21.39,76.48-31.05   c12.85-4.94,25.9-9.44,39.03-13.7c6.58-2.01,13.15-4.07,19.76-5.99c6.62-1.88,13.25-3.73,19.91-5.51   c13.34-3.44,26.73-6.74,40.35-9.15c3.46-0.56,6.73-1.17,10.44-1.46c3.53-0.1,7,0.01,10.47,0.29c6.92,0.67,13.82,1.86,20.34,4.2   l-0.16,0.55c-6.7-1.46-13.5-2.15-20.3-2.12c-3.39-0.02-6.8,0.08-10.13,0.41c-3.12,0.46-6.58,1.31-9.85,2.08   c-13.26,3.27-26.48,6.96-39.64,10.78l-39.54,11.41c-13.12,3.87-26.18,7.99-39.11,12.57c-25.89,9.07-51.48,19.06-76.94,29.37   c-25.49,10.23-50.86,20.83-76.05,31.8L1652.52,2851.54z"
   id="path58" />
	<path
   class="st1"
   d="M1805.05,2694.24c3.93,2.17,8.19,3.37,12.45,4.22c4.27,0.86,8.62,1.18,12.94,1.33c2.17,0,4.33,0.03,6.5-0.1   c2.17-0.03,4.33-0.25,6.49-0.47c4.32-0.41,8.64-1.03,12.91-1.89c4.29-0.76,8.58-1.72,12.78-2.85c4.25-1.01,8.35-2.45,12.46-3.88   c4.04-1.57,8.02-3.33,11.73-5.57c3.7-2.23,7.32-4.82,9.85-8.53c-1.41,4.36-4.76,7.84-8.2,10.83c-3.54,2.94-7.48,5.38-11.59,7.4   c-8.25,4.04-17.08,6.51-25.98,8.27c-4.48,0.79-9.01,1.42-13.57,1.66c-2.29,0.1-4.57,0.18-6.86,0.08c-2.29,0.02-4.58-0.23-6.86-0.47   c-4.56-0.55-9.07-1.53-13.39-3.09C1812.48,2699.52,1808.25,2697.46,1805.05,2694.24z"
   id="path60" />
	<path
   class="st6"
   d="M2092.32,2632.17c0,0-4.3-62.59-10.44-80.74c-6.14-18.15,94.86-16.55,94.86-16.55s18.53,84.75,28.72,106.92   S2090.53,2688.73,2092.32,2632.17z"
   id="path62" />
	<path
   class="st7"
   d="M1985.91,2202.49l82.42,369.34c0,0,84.81,20.82,128.95-14.02l-30.35-350.31   C2166.92,2207.51,2024.38,2194.63,1985.91,2202.49z"
   id="path64" />
	<path
   class="st7"
   d="M2612.26,2093.22c-1.5,9.67-3.65,19.5-6.6,29.35c-0.04,0.1-0.06,0.21-0.09,0.31   c-16.48,54.98-57.31,71.69-94.27,74.56c-28.87,2.26-57.07,9.35-83.59,20.95c-58.45,25.55-153.44,36.65-204.8,25.47   c-56.47-12.3-249.98-18.77-329.34-21.73l34.39,394.57c-86.51,33.09-146.28,12.17-146.28,12.17s-111.64-450.09-98.39-505.98   c5.32-22.43,20.87-40.87,37.62-54.92c22.64-19.02,49.93-31.65,78.92-37.53c86.57-17.58,360.19-71.04,429.64-60.03   c58.23,9.23,166.25-3.93,218.83,20.15l146.91-42.86C2595.21,1947.7,2624.32,2015.86,2612.26,2093.22z"
   id="path66" />
	<path
   class="st8"
   d="M2626.72,2084.34c-66.66,50.98-260.47,20.35-269.63,16.47c-13.41-5.68-139.02-105.65-140.99-107.22   c-0.02-0.02-0.02-0.02-0.02-0.02c-15.42-3.79-36.68-22.95-36.68-22.95c-46.89-161.54-73.93-642.79-31.77-689.18   c42.17-46.39,132.41-106.45,132.41-106.45l-8.71-16.04c-2.81-5.15-1.34-11.59,3.42-14.99c71.28-50.92,132.98-65.95,157.38-70.17   c6.45-1.11,12.81,2.33,15.42,8.35l14.08,32.44l4.98,11.49l2.8,1.61l107.22,61.47c98.7,120.89,49.34,286.69,28.62,396.52   c-17.4,92.24-7.23,283.48-3.51,342.4c0.7,11.24,1.17,17.67,1.17,17.67c4.1,5.07,7.92,10,11.44,14.78   C2660.78,2023.74,2656.05,2061.94,2626.72,2084.34z"
   id="path68" />
	<path
   class="st6"
   d="M1786.3,1707.37c0,0-53.91-11.55-57.76-11.55c-3.85,0-34.66-25.03-86.64-19.25   c-5.83,0.65-12.32,1.11-18.84,2.06l-4.68-0.7l-17.29,4.91l-7.33-0.49l-19.8,7.43l-5.23,0.28l-30.81,11.55   c0,0-17.33,17.33-9.63,23.11c7.7,5.78,15.4-5.78,19.25-7.7c0.82-0.41,2.45-0.91,4.49-1.45c0.31,0.53,0.73,1.02,1.29,1.45   c5.94,4.45,11.23,1.87,15.4-1.93c1.96-0.37,38.51,5.78,55.84,13.48c12.31,5.47,15.4,11.55,42.8,14.1   c15.35,1.43,29.31,5.13,38.07,7.08c17.33,3.85,69.32,19.25,78.94,5.78C1794,1742.03,1786.3,1707.37,1786.3,1707.37z"
   id="path70" />
	<path
   class="st8"
   d="M2188.75,1247.68c-32.23,12.49-61.7,50.12-79.86,77.71c-11.03,16.76-19.92,34.82-26.61,53.73l-99.15,279.99   l-234.3,26.42c0,0-28.64,57.88,0.39,92.42c0,0,269.74,41.23,308.21,33.37c2.22-0.45,3.97-1.39,5.32-2.71l0.02,0.02   c0,0,0.02-0.03,0.05-0.08c1.24-1.23,28.61-18.61,29.18-20.49c22.45-39.01,145.32-241.29,179.34-393.54   C2296.32,1282.76,2241.76,1227.14,2188.75,1247.68z"
   id="path72" />
	<path
   class="st2"
   d="M2270.4,1394.32c-23.46,105.01-88.68,232.88-134.7,315.69c0.19,0.97,13.98,105.73,14.18,106.7   c46.13-82.84,98.7-315.89,122.4-421.97c3.62-16.19,5.62-31.7,6.09-46.24c-0.65,0.61-1.32,1.19-1.98,1.79   C2275.82,1364.17,2273.84,1378.93,2270.4,1394.32z"
   id="path74" />
	<path
   class="st2"
   d="M1983.63,1659.52c0,0,0.13,30.81,7.91,50.03c7.78,19.22,7.78,19.22,7.78,19.22s-7.88-42.33-5.99-50.04   c1.89-7.71,11.62,15.35,17.39,15.33c5.78-0.02-23.02-47.89-23.02-47.89L1983.63,1659.52z"
   id="path76" />
	<path
   class="st2"
   d="M1893.57,2222.13c0,0-63.76-53.65-67.59-47.85c-3.83,5.79,34.82,38.36,34.82,38.36s-63.59-11.29-59.72-7.45   C1804.94,2209.03,1870.53,2237.63,1893.57,2222.13z"
   id="path78" />
	<path
   class="st2"
   d="M2612.26,2093.22c-1.5,9.67-3.65,19.5-6.6,29.35c-113.26,49.84-243.71,8.72-261.94,3.33   c-19.12-5.66-125.95-130.35-127.61-132.3c1.97,1.57,127.58,101.53,140.99,107.22C2365.66,2104.44,2535.75,2131.47,2612.26,2093.22z   "
   id="path80" />
	
		<rect
   x="2080.33"
   y="2139.29"
   transform="matrix(0.0346 -0.9994 0.9994 0.0346 -217.7561 4233.2192)"
   class="st2"
   width="3.85"
   height="180.06"
   id="rect82" />
	<path
   class="st2"
   d="M2244.14,2713.79c0,0-18.49,16.6-70.06,20.93c-51.55,4.34-214.5,13.28-218.71-9.4c0,0,1.98-18.57,12.28-24.81   c10.29-6.22,67.95-31.23,67.95-31.23l39.06-29.05c0,0,2-14.45,6.13-16.53c4.11-2.08,10.3-0.04,10.3-0.04s10.42,22.66,26.93,26.71   c16.52,4.05,45.36-4.31,49.48-10.53c4.09-6.2,20.51-26.91,34.98-18.71c2.09,1.18,4.44,3.96,6.92,7.85   c6.32,9.75,13.5,26.5,19.73,42.53C2237.55,2693.3,2244.14,2713.79,2244.14,2713.79z"
   id="path84" />
	<path
   class="st1"
   d="M2040.55,2695.26l-0.37-0.91c-4.08-10.07-6.2-24.29-6.22-24.43l1.91-0.28c0.02,0.14,1.98,13.29,5.74,23.07   l12.5-5.42l-4.78-28.05l1.9-0.32l5.04,29.54L2040.55,2695.26z"
   id="path86" />
	<path
   class="st1"
   d="M2066.8,2680.94l-0.39-0.77c-4.08-8.07-8.56-26.96-8.75-27.76l1.88-0.44c0.04,0.19,4.33,18.27,8.21,26.56   l14.42-5.48c-1.54-4.33-7.91-22.83-7.96-33.73l1.93-0.01c0.05,11.81,8.08,33.75,8.16,33.97l0.33,0.89L2066.8,2680.94z"
   id="path88" />
	<path
   class="st1"
   d="M1961.45,2723.22c23.4-0.98,46.66-1.27,69.89-1.51c11.61-0.26,23.21-0.15,34.8-0.42   c11.59-0.1,23.16-0.23,34.73-0.56c11.57-0.11,23.11-0.55,34.65-0.98c11.55-0.33,23.04-1.16,34.54-1.88l8.61-0.69   c2.86-0.3,5.71-0.61,8.59-0.85c5.72-0.6,11.43-1.28,17.1-2.19c11.37-1.7,22.62-4.04,33.51-8.2l0.37,0.67   c-10.34,5.54-21.65,8.85-32.99,11.48c-11.38,2.58-22.91,4.43-34.48,5.78c-23.15,2.75-46.45,3.97-69.74,4.55   c-23.3,0.41-46.59,0.11-69.87-0.65c-23.28-0.79-46.54-1.99-69.76-3.79L1961.45,2723.22z"
   id="path90" />
	<path
   class="st1"
   d="M2229.13,2671.52l-28.57,7.65c0,0-14.26-30.24-10.27-40.35c2.7-6.86,12.85-9.1,19.11-9.84   C2215.73,2638.74,2222.91,2655.49,2229.13,2671.52z"
   id="path92" />
	<path
   class="st1"
   d="M2096.41,2644.27c5.52,4.45,11.55,7.84,17.84,10.1c1.58,0.54,3.18,0.99,4.78,1.39   c1.59,0.32,3.11,0.61,4.77,0.72c3.26,0.26,6.63,0.26,10,0c6.75-0.41,13.51-1.57,20.18-3.07c3.3-0.85,6.65-1.68,9.84-2.91   c3.23-1.16,6.39-2.52,9.34-4.53c-2.07,2.95-5.07,5.14-8.1,7.08c-3.09,1.91-6.39,3.39-9.77,4.66c-6.77,2.49-13.86,4.07-21.12,4.53   c-3.62,0.26-7.31,0.19-11.01-0.33c-1.84-0.23-3.75-0.7-5.55-1.27c-1.76-0.59-3.47-1.32-5.12-2.14   C2105.91,2655.21,2100.17,2650.34,2096.41,2644.27z"
   id="path94" />
</g>

<g
   id="g122">
	<polygon
   points="2031.14,2219.56 2687.26,2151.98 2334.75,2245.23  "
   id="polygon100" />
	<path
   d="M2413.12,2424.05l-82.39,0.34c-20.85,0.09-37.82-16.74-37.91-37.59l-0.59-141.32l157.88-0.66l0.59,141.32   C2450.8,2407,2433.97,2423.97,2413.12,2424.05z"
   id="path102" />
	<path
   d="M2007.76,2242.88l0.02,3.68c0.05,12.83,10.5,23.19,23.33,23.13l340.05-1.42c12.83-0.05,23.19-10.5,23.13-23.33l0,0   c-0.05-12.73-10.34-23.05-23.08-23.13l-340.06-2.25C2018.22,2219.47,2007.71,2229.96,2007.76,2242.88z"
   id="path104" />
	<path
   class="st10"
   d="M2343.68,2267.42l-312.59,1.31c-12.28,0.05-22.31-9.9-22.36-22.17l-0.02-3.68   c-0.02-5.99,2.3-11.62,6.54-15.86c0.29-0.29,0.61-0.56,0.92-0.83c-0.76-0.17-1.53-0.35-2.29-0.52c-4.6,4.6-7.12,10.71-7.1,17.22   l0.02,3.68c0.06,13.34,10.95,24.15,24.29,24.09l312.43-1.31C2343.59,2268.7,2343.64,2268.06,2343.68,2267.42z"
   id="path106" />
	<polygon
   points="2989.48,1379.97 2988.43,1382.87 2576.86,1410.83 2459.61,1784.25 2386.68,2268.2 2342.39,2268.39    2415.32,1784.44 2532.58,1411.02  "
   id="polygon108" />
	<polygon
   class="st11"
   points="3033.76,1379.79 2895.82,1760.69 2827.09,2231.4 2386.68,2268.2 2387.22,2264.65 2459.61,1784.25    2576.86,1410.83 2988.43,1382.87  "
   id="polygon110" />
	<rect
   x="2352.38"
   y="2402.45"
   width="38.51"
   height="336.95"
   id="rect112" />
	<path
   d="M2495.08,2754.28l-125.37-32.21l-120.42,31c-22.14,5.7-21.5,37.4,0.86,42.13c55.34,11.72,139.05,19.97,243.4,1.34   C2516.42,2792.47,2517.58,2760.06,2495.08,2754.28z"
   id="path114" />
	<polygon
   class="st10"
   points="2350.34,2423.3 2390.89,2423.3 2390.89,2435.8 2352.38,2435.8  "
   id="polygon116" />
	<path
   class="st10"
   d="M2240.77,2771.76c22.3,0.95,44.4,2.23,66.46,3.4c11.04,0.44,22.04,1.19,33.06,1.51   c11,0.48,22,0.87,32.99,1.01c10.99,0.37,21.97,0.31,32.93,0.22c10.98,0.06,21.91-0.55,32.86-1.01c10.94-0.61,21.86-1.52,32.73-2.97   c10.9-1.34,21.71-3.33,32.55-5.98l0.28,0.72c-10.37,4.05-21.14,6.96-32.01,9.24c-10.88,2.26-21.88,3.92-32.94,5.01   c-22.11,2.28-44.35,2.83-66.56,2.47c-22.21-0.52-44.38-1.99-66.47-4.16c-22.09-2.2-44.12-4.98-66.02-8.69L2240.77,2771.76z"
   id="path118" />
	<polygon
   points="2808.69,2214.03 2804.87,2213.49 2870.37,1758.87 2870.44,1758.68 3004.15,1405.32 2587.44,1439.73    2587.12,1435.89 3009.91,1400.98 3008.83,1403.83 2874.12,1759.84  "
   id="polygon120" />
</g>
<rect
   x="0"
   class="st12"
   width="3365"
   height="3365"
   id="rect124" />
</svg>
